<mxfile host="app.diagrams.net" modified="2024-06-07T15:00:47.523Z" agent="Mozilla/5.0 (Macintosh; Intel Mac OS X 10_15_7) AppleWebKit/537.36 (KHTML, like Gecko) Chrome/124.0.0.0 Safari/537.36" version="24.5.2" etag="NLTDu_Yghg80xZwdEn86" type="github">
  <diagram name="Page-1" id="AL28OFsIZO0ZSezH4fNu">
    <mxGraphModel>
      <root>
        <mxCell id="0" />
        <mxCell id="1" parent="0" />
      </root>
    </mxGraphModel>
  </diagram>
</mxfile>
